<svg width="2048" height="2048" viewBox="0 0 2048 2048" fill="none" xmlns="http://www.w3.org/2000/svg">
<g clip-path="url(#clip0_2_3)">
<path d="M2047.5 0.5H0.5V2047.5H2047.5V0.5Z" fill="black"/>
<path d="M2047 1V2047H1V1H2047ZM2048 0H0V2048H2048V0Z" fill="black"/>
<rect x="693.919" y="819.213" width="678.846" height="433.893" rx="32.4353" fill="#94BAF4"/>
<path d="M675.234 937.221V1072.43V1150.61M675.234 885.784V855.487V827.329C675.234 809.416 689.756 794.894 707.67 794.894H844.946H904.539M950.181 794.894H1014.66H1132.12H1147.44H1207.92H1321.65C1339.56 794.894 1354.08 809.416 1354.08 827.329V1196.35C1354.08 1214.27 1339.56 1228.79 1321.65 1228.79H1269.22H1248.01M675.234 1175.75V1189.7V1196.35C675.234 1214.27 689.756 1228.79 707.67 1228.79H844.946H971.393M1038.62 1228.79H1184.37H1205.58" stroke="white" stroke-width="8.14416" stroke-linecap="round"/>
<rect x="707.196" y="886.657" width="585.776" height="123.923" rx="3.97167" stroke="white" stroke-width="5.29555"/>
<rect x="707.196" y="1067.88" width="585.776" height="126.055" rx="3.97167" stroke="white" stroke-width="5.29555"/>
<path d="M728.047 835.48V860.93H723.399L712.327 844.912H712.141V860.93H706.76V835.48H711.482L722.467 851.486H722.691V835.48H728.047ZM741.017 861.302C739.086 861.302 737.417 860.892 736.009 860.072C734.609 859.244 733.528 858.092 732.765 856.618C732.003 855.135 731.622 853.416 731.622 851.461C731.622 849.489 732.003 847.766 732.765 846.291C733.528 844.808 734.609 843.657 736.009 842.837C737.417 842.008 739.086 841.594 741.017 841.594C742.947 841.594 744.612 842.008 746.012 842.837C747.42 843.657 748.506 844.808 749.268 846.291C750.03 847.766 750.411 849.489 750.411 851.461C750.411 853.416 750.03 855.135 749.268 856.618C748.506 858.092 747.42 859.244 746.012 860.072C744.612 860.892 742.947 861.302 741.017 861.302ZM741.041 857.202C741.92 857.202 742.653 856.953 743.241 856.456C743.829 855.951 744.272 855.263 744.571 854.393C744.877 853.524 745.03 852.534 745.03 851.423C745.03 850.313 744.877 849.323 744.571 848.454C744.272 847.584 743.829 846.896 743.241 846.391C742.653 845.885 741.92 845.633 741.041 845.633C740.155 845.633 739.409 845.885 738.805 846.391C738.208 846.896 737.757 847.584 737.45 848.454C737.152 849.323 737.003 850.313 737.003 851.423C737.003 852.534 737.152 853.524 737.45 854.393C737.757 855.263 738.208 855.951 738.805 856.456C739.409 856.953 740.155 857.202 741.041 857.202ZM762.477 861.302C760.547 861.302 758.877 860.892 757.469 860.072C756.069 859.244 754.988 858.092 754.226 856.618C753.464 855.135 753.083 853.416 753.083 851.461C753.083 849.489 753.464 847.766 754.226 846.291C754.988 844.808 756.069 843.657 757.469 842.837C758.877 842.008 760.547 841.594 762.477 841.594C764.407 841.594 766.072 842.008 767.472 842.837C768.881 843.657 769.966 844.808 770.728 846.291C771.49 847.766 771.871 849.489 771.871 851.461C771.871 853.416 771.49 855.135 770.728 856.618C769.966 858.092 768.881 859.244 767.472 860.072C766.072 860.892 764.407 861.302 762.477 861.302ZM762.502 857.202C763.38 857.202 764.113 856.953 764.701 856.456C765.289 855.951 765.733 855.263 766.031 854.393C766.337 853.524 766.491 852.534 766.491 851.423C766.491 850.313 766.337 849.323 766.031 848.454C765.733 847.584 765.289 846.896 764.701 846.391C764.113 845.885 763.38 845.633 762.502 845.633C761.615 845.633 760.87 845.885 760.265 846.391C759.669 846.896 759.217 847.584 758.911 848.454C758.612 849.323 758.463 850.313 758.463 851.423C758.463 852.534 758.612 853.524 758.911 854.393C759.217 855.263 759.669 855.951 760.265 856.456C760.87 856.953 761.615 857.202 762.502 857.202ZM785.466 841.843V845.819H773.971V841.843H785.466ZM776.581 837.27H781.874V855.064C781.874 855.553 781.949 855.934 782.098 856.208C782.247 856.473 782.454 856.659 782.719 856.767C782.993 856.874 783.308 856.928 783.664 856.928C783.912 856.928 784.161 856.908 784.409 856.866C784.658 856.817 784.849 856.779 784.981 856.754L785.814 860.694C785.549 860.776 785.176 860.872 784.695 860.979C784.215 861.095 783.631 861.166 782.943 861.191C781.667 861.24 780.549 861.07 779.588 860.681C778.635 860.292 777.894 859.687 777.364 858.867C776.834 858.047 776.573 857.011 776.581 855.76V837.27ZM797.333 861.302C795.403 861.302 793.733 860.892 792.325 860.072C790.925 859.244 789.844 858.092 789.082 856.618C788.32 855.135 787.939 853.416 787.939 851.461C787.939 849.489 788.32 847.766 789.082 846.291C789.844 844.808 790.925 843.657 792.325 842.837C793.733 842.008 795.403 841.594 797.333 841.594C799.263 841.594 800.928 842.008 802.328 842.837C803.737 843.657 804.822 844.808 805.584 846.291C806.346 847.766 806.727 849.489 806.727 851.461C806.727 853.416 806.346 855.135 805.584 856.618C804.822 858.092 803.737 859.244 802.328 860.072C800.928 860.892 799.263 861.302 797.333 861.302ZM797.358 857.202C798.236 857.202 798.969 856.953 799.557 856.456C800.145 855.951 800.589 855.263 800.887 854.393C801.193 853.524 801.347 852.534 801.347 851.423C801.347 850.313 801.193 849.323 800.887 848.454C800.589 847.584 800.145 846.896 799.557 846.391C798.969 845.885 798.236 845.633 797.358 845.633C796.471 845.633 795.726 845.885 795.121 846.391C794.525 846.896 794.073 847.584 793.767 848.454C793.468 849.323 793.319 850.313 793.319 851.423C793.319 852.534 793.468 853.524 793.767 854.393C794.073 855.263 794.525 855.951 795.121 856.456C795.726 856.953 796.471 857.202 797.358 857.202Z" fill="white"/>
<path d="M726.848 910.017H815.371M726.848 931.836H966.89M726.848 955.767H925.012M726.848 984.273H942.608" stroke="white" stroke-width="5.29555" stroke-linecap="round"/>
<path d="M726.848 1093.78H784.635M726.848 1115.6H862.385M726.848 1139.53H944.184M726.848 1168.03H903.285" stroke="white" stroke-width="5.29555" stroke-linecap="round"/>
<rect x="706.177" y="1024.8" width="71.6011" height="12.1713" rx="3.80061" stroke="white" stroke-width="3.25766"/>
<rect x="799.716" y="1024.8" width="71.6011" height="12.1713" rx="3.80061" stroke="white" stroke-width="3.25766"/>
</g>
<defs>
<clipPath id="clip0_2_3">
<rect width="2048" height="2048" fill="white"/>
</clipPath>
</defs>
</svg>
