<?xml version="1.0" encoding="iso-8859-1"?>
<!-- Generator: Adobe Illustrator 25.2.0, SVG Export Plug-In . SVG Version: 6.00 Build 0)  -->
<svg version="1.1" id="&#x56FE;&#x5C42;_1" xmlns="http://www.w3.org/2000/svg" xmlns:xlink="http://www.w3.org/1999/xlink" x="0px"
	 y="0px" viewBox="0 0 2048 2048" style="enable-background:new 0 0 2048 2048;" xml:space="preserve">
<g>
	<rect x="0.5" y="0.5" width="2047" height="2047"/>
	<path d="M2047,1v2046H1V1H2047 M2048,0H0v2048h2048V0L2048,0z"/>
</g>
<g>
	<polygon style="fill:#D4AB78;" points="864.327,1011.775 826.361,1032.651 826.361,1180.684 974.394,1180.684 1017.294,1162.983 
		1017.294,1011.775 	"/>
	<polygon style="fill:#78D49B;" points="1017.884,819.019 979.918,839.896 979.918,987.928 1127.951,987.928 1170.851,970.227 
		1170.851,819.019 	"/>
	<polygon style="fill:#CCDE6F;" points="1086.941,1045.729 1048.975,1066.605 1048.975,1214.638 1197.008,1214.638 
		1239.908,1196.937 1239.908,1045.729 	"/>
	
		<polyline style="fill:none;stroke:#FFFFFF;stroke-width:4.6866;stroke-linecap:round;stroke-linejoin:round;stroke-miterlimit:10;" points="
		889.758,1192.356 810.435,1192.356 810.435,1094.29 	"/>
	
		<polyline style="fill:none;stroke:#FFFFFF;stroke-width:4.6866;stroke-linecap:round;stroke-linejoin:round;stroke-miterlimit:10;" points="
		810.435,1066.699 810.435,1044.324 958.468,1044.324 958.468,1192.356 938.891,1192.356 	"/>
	
		<polyline style="fill:none;stroke:#FFFFFF;stroke-width:4.6866;stroke-linecap:round;stroke-linejoin:round;stroke-miterlimit:10;" points="
		1001.368,1104.967 1001.368,1174.655 958.468,1192.356 	"/>
	
		<polyline style="fill:none;stroke:#FFFFFF;stroke-width:4.6866;stroke-linecap:round;stroke-linejoin:round;stroke-miterlimit:10;" points="
		958.468,1044.324 1001.368,1023.447 1001.368,1078.605 	"/>
	
		<polyline style="fill:none;stroke:#FFFFFF;stroke-width:4.6866;stroke-linecap:round;stroke-linejoin:round;stroke-miterlimit:10;" points="
		1001.368,1023.447 848.401,1023.447 810.435,1044.324 	"/>
	<path style="fill:none;stroke:#FFFFFF;stroke-width:4.6866;stroke-linecap:round;stroke-linejoin:round;stroke-miterlimit:10;" d="
		M975.553,999.317"/>
	
		<polyline style="fill:none;stroke:#FFFFFF;stroke-width:4.6866;stroke-linecap:round;stroke-linejoin:round;stroke-miterlimit:10;" points="
		1111.427,938.195 1111.427,999.317 1009.569,999.317 	"/>
	
		<polyline style="fill:none;stroke:#FFFFFF;stroke-width:4.6866;stroke-linecap:round;stroke-linejoin:round;stroke-miterlimit:10;" points="
		975.553,999.317 963.394,999.317 963.394,851.284 1111.427,851.284 1111.427,891.707 	"/>
	
		<polyline style="fill:none;stroke:#FFFFFF;stroke-width:4.6866;stroke-linecap:round;stroke-linejoin:round;stroke-miterlimit:10;" points="
		1137.315,838.686 1154.327,830.408 1154.327,981.616 1111.427,999.317 	"/>
	<path style="fill:none;stroke:#FFFFFF;stroke-width:4.6866;stroke-linecap:round;stroke-linejoin:round;stroke-miterlimit:10;" d="
		M1137.315,838.686"/>
	
		<line style="fill:none;stroke:#FFFFFF;stroke-width:4.6866;stroke-linecap:round;stroke-linejoin:round;stroke-miterlimit:10;" x1="1111.427" y1="851.284" x2="1129.33" y2="842.572"/>
	
		<polyline style="fill:none;stroke:#FFFFFF;stroke-width:4.6866;stroke-linecap:round;stroke-linejoin:round;stroke-miterlimit:10;" points="
		1024.687,830.408 1001.36,830.408 963.394,851.284 	"/>
	
		<line style="fill:none;stroke:#FFFFFF;stroke-width:4.6866;stroke-linecap:round;stroke-linejoin:round;stroke-miterlimit:10;" x1="1154.327" y1="830.408" x2="1057.569" y2="830.408"/>
	<path style="fill:none;stroke:#FFFFFF;stroke-width:4.6866;stroke-linecap:round;stroke-linejoin:round;stroke-miterlimit:10;" d="
		M1037.098,1162.699"/>
	
		<polyline style="fill:none;stroke:#FFFFFF;stroke-width:4.6866;stroke-linecap:round;stroke-linejoin:round;stroke-miterlimit:10;" points="
		1185.131,1139.644 1185.131,1226.637 1037.098,1226.637 1037.098,1209.188 	"/>
	
		<polyline style="fill:none;stroke:#FFFFFF;stroke-width:4.6866;stroke-linecap:round;stroke-linejoin:round;stroke-miterlimit:10;" points="
		1037.098,1162.699 1037.098,1078.605 1185.131,1078.605 1185.131,1112.054 	"/>
	
		<line style="fill:none;stroke:#FFFFFF;stroke-width:4.6866;stroke-linecap:round;stroke-linejoin:round;stroke-miterlimit:10;" x1="1201.086" y1="1220.054" x2="1185.131" y2="1226.637"/>
	<path style="fill:none;stroke:#FFFFFF;stroke-width:4.6866;stroke-linecap:round;stroke-linejoin:round;stroke-miterlimit:10;" d="
		M1201.086,1220.054"/>
	
		<polyline style="fill:none;stroke:#FFFFFF;stroke-width:4.6866;stroke-linecap:round;stroke-linejoin:round;stroke-miterlimit:10;" points="
		1185.131,1078.605 1228.031,1057.728 1228.031,1208.937 1214.214,1214.638 	"/>
	
		<polyline style="fill:none;stroke:#FFFFFF;stroke-width:4.6866;stroke-linecap:round;stroke-linejoin:round;stroke-miterlimit:10;" points="
		1098.387,1057.728 1075.064,1057.728 1037.098,1078.605 	"/>
	<path style="fill:none;stroke:#FFFFFF;stroke-width:4.6866;stroke-linecap:round;stroke-linejoin:round;stroke-miterlimit:10;" d="
		M1098.387,1057.728"/>
	
		<line style="fill:none;stroke:#FFFFFF;stroke-width:4.6866;stroke-linecap:round;stroke-linejoin:round;stroke-miterlimit:10;" x1="1228.031" y1="1057.728" x2="1124.088" y2="1057.728"/>
	
		<line style="fill:none;stroke:#FFFFFF;stroke-width:4.6866;stroke-linecap:round;stroke-linejoin:round;stroke-miterlimit:10;" x1="900.246" y1="1192.356" x2="919.096" y2="1192.356"/>
	
		<line style="fill:none;stroke:#FFFFFF;stroke-width:4.6866;stroke-linecap:round;stroke-linejoin:round;stroke-miterlimit:10;" x1="1111.427" y1="899.597" x2="1111.427" y2="909.377"/>
	
		<line style="fill:none;stroke:#FFFFFF;stroke-width:4.6866;stroke-linecap:round;stroke-linejoin:round;stroke-miterlimit:10;" x1="1037.411" y1="1190.29" x2="1037.411" y2="1199.644"/>
</g>
</svg>
