<?xml version="1.0" encoding="iso-8859-1"?>
<!-- Generator: Adobe Illustrator 25.2.0, SVG Export Plug-In . SVG Version: 6.00 Build 0)  -->
<svg version="1.1" id="&#x56FE;&#x5C42;_1" xmlns="http://www.w3.org/2000/svg" xmlns:xlink="http://www.w3.org/1999/xlink" x="0px"
	 y="0px" viewBox="0 0 2048 2048" style="enable-background:new 0 0 2048 2048;" xml:space="preserve">
<g>
	<rect x="0.5" y="0.5" width="2047" height="2047"/>
	<path d="M2047,1v2046H1V1H2047 M2048,0H0v2048h2048V0L2048,0z"/>
</g>
<g>
	<g>
		<path style="fill:#6CD1A1;" d="M831.82,1244.456l37.254-94.915c0.12-0.306,0.254-0.612,0.388-0.904
			c-24.201-33.55-38.396-74.276-38.396-118.205c0-114.651,96.618-207.588,215.802-207.588s215.802,92.937,215.802,207.588
			s-96.618,207.588-215.802,207.588c-36.858,0-71.551-8.893-101.897-24.567c-0.553,0.411-1.135,0.784-1.755,1.128l-89.24,49.313
			C841.132,1270.987,826.459,1258.113,831.82,1244.456z"/>
	</g>
	<g>
		<path style="fill:#6CD1A1;" d="M1231.055,1216.073l-31.969-81.451c-0.103-0.263-0.218-0.525-0.333-0.775
			c20.768-28.791,32.949-63.74,32.949-101.437c0-98.387-82.912-178.14-185.189-178.14s-185.189,79.753-185.189,178.14
			s82.912,178.14,185.189,178.14c31.63,0,61.401-7.632,87.442-21.082c0.474,0.352,0.974,0.673,1.506,0.968l76.581,42.318
			C1223.065,1238.84,1235.656,1227.793,1231.055,1216.073z"/>
	</g>
</g>
<path style="fill:none;stroke:#FFFFFF;stroke-width:7;stroke-linecap:round;stroke-miterlimit:10;" d="M1204.745,1131.701
	c-6.453,9.459-13.687,18.38-21.614,26.678"/>
<path style="fill:none;stroke:#FFFFFF;stroke-width:7;stroke-linecap:round;stroke-miterlimit:10;" d="M1204.745,1131.701"/>
<path style="fill:none;stroke:#FFFFFF;stroke-width:7;stroke-linecap:round;stroke-miterlimit:10;" d="M875.188,867.795
	c38.736-35.576,91.217-57.423,149.003-57.423c119.184,0,215.802,92.937,215.802,207.588c0,34.733-8.867,67.473-24.542,96.24"/>
<path style="fill:none;stroke:#FFFFFF;stroke-width:7;stroke-linecap:round;stroke-miterlimit:10;" d="M875.188,1227.167
	l-43.89,24.253c-12.844,7.094-27.516-5.78-22.155-19.437l37.254-94.915c0.12-0.306,0.254-0.612,0.388-0.904
	c-24.201-33.55-38.396-74.276-38.396-118.206c0-34.568,8.783-67.163,24.32-95.831"/>
<path style="fill:none;stroke:#FFFFFF;stroke-width:7;stroke-linecap:round;stroke-miterlimit:10;" d="M875.188,1227.167"/>
<path style="fill:none;stroke:#FFFFFF;stroke-width:7;stroke-linecap:round;stroke-miterlimit:10;" d="M1145.372,1189.753
	c-34.545,22.591-76.26,35.794-121.181,35.794c-36.858,0-71.551-8.893-101.897-24.567c-0.553,0.411-1.135,0.784-1.755,1.128
	l-20.664,11.419"/>
<path style="fill:none;stroke:#FFFFFF;stroke-width:7;stroke-linecap:round;stroke-miterlimit:10;" d="M908.379,1145.042
	c30.654,26.36,71.116,42.385,115.468,42.385c29.602,0,57.465-7.143,81.838-19.731c0.444,0.33,0.912,0.63,1.409,0.906l71.673,39.605
	c10.315,5.697,22.1-4.642,17.794-15.611l-29.92-76.23c-0.096-0.246-0.204-0.492-0.312-0.726
	c12.278-17.021,21.349-36.341,26.366-57.156"/>
<path style="fill:none;stroke:#FFFFFF;stroke-width:7;stroke-linecap:round;stroke-miterlimit:10;" d="M1179.759,947.794
	c-28.121-55.541-87.37-93.812-155.912-93.812c-95.721,0-173.319,74.641-173.319,166.722c0,35.847,11.76,69.05,31.771,96.236"/>
<g>
	<circle style="fill:#61BD91;" cx="962.23" cy="1034.488" r="20.376"/>
</g>
<g>
	<circle style="fill:#61BD91;" cx="1038.718" cy="1034.488" r="20.376"/>
</g>
<g>
	<circle style="fill:#61BD91;" cx="1117.474" cy="1034.488" r="20.376"/>
</g>
<circle style="fill:none;stroke:#FFFFFF;stroke-width:7;stroke-miterlimit:10;" cx="949.791" cy="1024" r="17.258"/>
<circle style="fill:none;stroke:#FFFFFF;stroke-width:7;stroke-miterlimit:10;" cx="1029.419" cy="1024" r="17.258"/>
<circle style="fill:none;stroke:#FFFFFF;stroke-width:7;stroke-miterlimit:10;" cx="1108.431" cy="1024" r="17.258"/>
</svg>
