<?xml version="1.0" encoding="iso-8859-1"?>
<!-- Generator: Adobe Illustrator 25.2.0, SVG Export Plug-In . SVG Version: 6.00 Build 0)  -->
<svg version="1.1" id="&#x56FE;&#x5C42;_1" xmlns="http://www.w3.org/2000/svg" xmlns:xlink="http://www.w3.org/1999/xlink" x="0px"
	 y="0px" viewBox="0 0 2048 2048" style="enable-background:new 0 0 2048 2048;" xml:space="preserve">
<g>
	<rect x="0.5" y="0.5" width="2047" height="2047"/>
	<path d="M2047,1v2046H1V1H2047 M2048,0H0v2048h2048V0L2048,0z"/>
</g>
<g>
	<g>
		<path style="fill:#516A94;" d="M983.014,1120.073l18.18-1.589c0.86,7.286,2.864,13.262,6.01,17.931
			c3.144,4.669,8.029,8.443,14.653,11.325c6.622,2.881,14.072,4.321,22.352,4.321c7.352,0,13.841-1.093,19.471-3.278
			c5.629-2.185,9.818-5.181,12.567-8.99c2.747-3.807,4.123-7.962,4.123-12.467c0-4.57-1.325-8.559-3.973-11.971
			c-2.65-3.41-7.021-6.274-13.114-8.593c-3.908-1.523-12.551-3.89-25.928-7.103c-13.378-3.212-22.749-6.242-28.114-9.09
			c-6.954-3.642-12.137-8.161-15.547-13.56c-3.412-5.397-5.116-11.44-5.116-18.13c0-7.351,2.086-14.221,6.258-20.613
			c4.172-6.391,10.265-11.241,18.279-14.554c8.012-3.311,16.921-4.967,26.723-4.967c10.794,0,20.315,1.739,28.561,5.216
			c8.246,3.477,14.587,8.593,19.024,15.348c4.436,6.755,6.82,14.405,7.153,22.948l-18.478,1.391
			c-0.994-9.205-4.356-16.159-10.084-20.862c-5.729-4.702-14.19-7.053-25.382-7.053c-11.657,0-20.151,2.136-25.481,6.407
			c-5.332,4.272-7.997,9.422-7.997,15.448c0,5.233,1.888,9.537,5.662,12.915c3.708,3.378,13.394,6.839,29.058,10.381
			c15.662,3.544,26.408,6.64,32.236,9.288c8.477,3.909,14.735,8.859,18.776,14.852c4.039,5.995,6.06,12.899,6.06,20.713
			c0,7.749-2.219,15.05-6.656,21.905c-4.438,6.855-10.812,12.186-19.123,15.994c-8.312,3.807-17.667,5.712-28.064,5.712
			c-13.18,0-24.224-1.922-33.13-5.762c-8.908-3.84-15.895-9.619-20.961-17.335C985.946,1138.536,983.279,1129.809,983.014,1120.073z
			"/>
	</g>
	
		<line style="fill:none;stroke:#516A94;stroke-width:7;stroke-miterlimit:10;" x1="1040.981" y1="1002.635" x2="1040.981" y2="1185.457"/>
</g>
<g>
	<g>
		<path style="fill:#516A94;" d="M778.023,974.17v249.52h36.6V974.17H778.023z M807.623,1216.69h-22.6V981.17h22.6V1216.69z"/>
		<rect x="785.023" y="981.17" style="fill:#516A94;" width="22.6" height="235.52"/>
	</g>
	<g>
		<g>
			<path style="fill:#516A94;" d="M1345.463,1219.59h-604.43c-10.84,0-19.65,8.82-19.65,19.66v10.93c0,10.84,8.81,19.66,19.65,19.66
				h604.43c10.84,0,19.66-8.82,19.66-19.66v-10.93C1365.123,1228.41,1356.303,1219.59,1345.463,1219.59z M1358.123,1250.18
				c0,6.98-5.68,12.66-12.66,12.66h-604.43c-6.98,0-12.65-5.68-12.65-12.66v-10.93c0-6.98,5.67-12.66,12.65-12.66h604.43
				c6.98,0,12.66,5.68,12.66,12.66V1250.18z"/>
			<path style="fill:#516A94;" d="M1358.123,1239.25v10.93c0,6.98-5.68,12.66-12.66,12.66h-604.43c-6.98,0-12.65-5.68-12.65-12.66
				v-10.93c0-6.98,5.67-12.66,12.65-12.66h604.43C1352.443,1226.59,1358.123,1232.27,1358.123,1239.25z"/>
		</g>
		<g>
			<path style="fill:#516A94;" d="M1345.213,886.8l-296.43-66.04c-3.62-0.8-7.44-0.8-11.06,0l-296.43,66.04
				c-15.28,3.41-20.95,16.7-19.75,27.61c1.2,10.91,9.62,22.65,25.28,22.65h592.85c15.66,0,24.08-11.74,25.28-22.65
				C1366.153,903.5,1360.493,890.21,1345.213,886.8z M1358.003,913.64c-0.9,8.17-6.92,16.42-18.33,16.42h-592.85
				c-11.41,0-17.42-8.25-18.32-16.42s3.18-17.52,14.31-20l296.43-66.05c1.31-0.29,2.66-0.43,4.01-0.43s2.69,0.14,4.01,0.43
				l296.42,66.05C1354.823,896.12,1358.903,905.47,1358.003,913.64z"/>
			<path style="fill:#516A94;" d="M1358.003,913.64c-0.9,8.17-6.92,16.42-18.33,16.42h-592.85c-11.41,0-17.42-8.25-18.32-16.42
				s3.18-17.52,14.31-20l296.43-66.05c1.31-0.29,2.66-0.43,4.01-0.43s2.69,0.14,4.01,0.43l296.42,66.05
				C1354.823,896.12,1358.903,905.47,1358.003,913.64z"/>
		</g>
		<g>
			<path style="fill:#516A94;" d="M1333.403,941.76v27.71c0,5.01-3.17,9.3-7.61,10.96c-1.27,0.48-2.65,0.74-4.09,0.74h-542.97
				c-0.24,0-0.48-0.01-0.71-0.03c-6.12-0.36-10.99-5.46-10.99-11.67v-27.71c0-1.67,0.35-3.26,0.99-4.7c1.81-4.12,5.93-7,10.71-7
				h441.39c1.94,0,3.5,1.57,3.5,3.5c0,1.93-1.56,3.5-3.5,3.5h-441.39c-2.59,0-4.7,2.11-4.7,4.7v27.71c0,2.59,2.11,4.7,4.7,4.7
				h542.97c2.59,0,4.7-2.11,4.7-4.7v-27.71c0-2.59-2.11-4.7-4.7-4.7h-61.89c-1.94,0-3.5-1.57-3.5-3.5c0-1.93,1.56-3.5,3.5-3.5h61.89
				c4.78,0,8.9,2.88,10.71,7C1333.053,938.5,1333.403,940.09,1333.403,941.76z"/>
		</g>
		<g>
			<path style="fill:#516A94;" d="M838.483,974.17v249.52h36.6V974.17H838.483z M868.083,1216.69h-22.6V981.17h22.6V1216.69z"/>
			<rect x="845.483" y="981.17" style="fill:#516A94;" width="22.6" height="235.52"/>
			<path style="fill:#516A94;" d="M1326.403,941.76v27.71c0,2.59-2.11,4.7-4.7,4.7h-542.97c-2.59,0-4.7-2.11-4.7-4.7v-27.71
				c0-2.59,2.11-4.7,4.7-4.7h542.97C1324.293,937.06,1326.403,939.17,1326.403,941.76z"/>
		</g>
		<g>
			<path style="fill:#516A94;" d="M1230.003,975.62v249.52h36.6V975.62H1230.003z M1259.603,982.62v235.52h-22.6V982.62H1259.603z"
				/>
			<rect x="1237.003" y="982.62" style="fill:#516A94;" width="22.6" height="235.52"/>
		</g>
		<g>
			<path style="fill:#516A94;" d="M1289.193,975.62v249.52h36.6V975.62H1289.193z M1318.793,982.62v235.52h-22.6V982.62H1318.793z"
				/>
			<rect x="1296.193" y="982.62" style="fill:#516A94;" width="22.6" height="235.52"/>
		</g>
	</g>
</g>
<g>
	<g>
		<path style="fill:#FFFFFF;" d="M966.034,1103.964l18.18-1.589c0.86,7.286,2.863,13.262,6.01,17.931
			c3.144,4.669,8.029,8.444,14.653,11.325c6.622,2.881,14.072,4.321,22.352,4.321c7.352,0,13.841-1.093,19.471-3.278
			c5.629-2.185,9.818-5.181,12.567-8.99c2.747-3.807,4.123-7.962,4.123-12.467c0-4.57-1.325-8.559-3.973-11.971
			c-2.65-3.41-7.021-6.274-13.114-8.593c-3.908-1.523-12.551-3.89-25.928-7.103c-13.378-3.212-22.749-6.242-28.114-9.09
			c-6.954-3.642-12.137-8.162-15.547-13.56c-3.412-5.397-5.116-11.44-5.116-18.13c0-7.351,2.086-14.221,6.258-20.613
			c4.172-6.391,10.265-11.241,18.279-14.554c8.012-3.311,16.921-4.967,26.723-4.967c10.794,0,20.315,1.739,28.56,5.216
			c8.246,3.477,14.587,8.593,19.024,15.348c4.436,6.755,6.82,14.405,7.153,22.948l-18.477,1.391
			c-0.994-9.205-4.356-16.159-10.084-20.862c-5.729-4.702-14.19-7.053-25.382-7.053c-11.657,0-20.151,2.136-25.481,6.407
			c-5.332,4.272-7.997,9.422-7.997,15.448c0,5.233,1.888,9.537,5.662,12.915c3.708,3.377,13.394,6.839,29.058,10.381
			c15.662,3.544,26.408,6.641,32.236,9.289c8.477,3.909,14.735,8.859,18.776,14.852c4.039,5.995,6.06,12.899,6.06,20.713
			c0,7.749-2.219,15.05-6.656,21.905c-4.438,6.855-10.812,12.186-19.123,15.994c-8.312,3.807-17.667,5.712-28.064,5.712
			c-13.18,0-24.224-1.922-33.13-5.762c-8.908-3.84-15.895-9.619-20.961-17.335C968.965,1122.426,966.298,1113.7,966.034,1103.964z"
			/>
	</g>
	
		<line style="fill:none;stroke:#FFFFFF;stroke-width:12.2966;stroke-linecap:round;stroke-linejoin:round;stroke-miterlimit:10;" x1="1024" y1="986.526" x2="1024" y2="1169.347"/>
</g>
<line style="fill:none;stroke:#FFFFFF;stroke-width:7;stroke-linecap:round;stroke-linejoin:round;stroke-miterlimit:10;" x1="1229.05" y1="1245.342" x2="920.811" y2="1245.342"/>
<path style="fill:none;stroke:#FFFFFF;stroke-width:7;stroke-linecap:round;stroke-linejoin:round;stroke-miterlimit:10;" d="
	M768.307,1245.342h-46.523c-8.922,0-16.155-7.233-16.155-16.155v-10.935c0-8.922,7.233-16.155,16.155-16.155h604.431
	c8.922,0,16.155,7.233,16.155,16.155v10.935c0,8.922-7.233,16.155-16.155,16.155h-68.365"/>
<path style="fill:none;stroke:#FFFFFF;stroke-width:7;stroke-linecap:round;stroke-linejoin:round;stroke-miterlimit:10;" d="
	M1243.848,912.563h76.579c26.201,0,30.343-37.641,4.769-43.339l-296.427-66.041c-3.141-0.7-6.398-0.7-9.539,0l-87.863,19.575"/>
<path style="fill:none;stroke:#FFFFFF;stroke-width:7;stroke-linecap:round;stroke-linejoin:round;stroke-miterlimit:10;" d="
	M777.069,857.135l-54.265,12.09c-25.574,5.698-21.432,43.339,4.769,43.339h475.569"/>
<path style="fill:none;stroke:#FFFFFF;stroke-width:7;stroke-linecap:round;stroke-miterlimit:10;" d="M871.772,956.677h-112.29
	c-4.531,0-8.203-3.673-8.203-8.204v-27.707c0-4.531,3.673-8.204,8.203-8.204h441.393"/>
<path style="fill:none;stroke:#FFFFFF;stroke-width:7;stroke-linecap:round;stroke-miterlimit:10;" d="M1240.559,912.563h61.889
	c4.531,0,8.204,3.673,8.204,8.204v27.707c0,4.531-3.673,8.204-8.204,8.204h-371.08"/>
<rect x="762.271" y="956.677" style="fill:none;stroke:#FFFFFF;stroke-width:7;stroke-miterlimit:10;" width="29.596" height="242.519"/>
<rect x="822.732" y="956.677" style="fill:none;stroke:#FFFFFF;stroke-width:7;stroke-miterlimit:10;" width="29.596" height="242.519"/>
<rect x="1214.251" y="958.127" style="fill:none;stroke:#FFFFFF;stroke-width:7;stroke-miterlimit:10;" width="29.596" height="242.519"/>
<rect x="1273.444" y="958.127" style="fill:none;stroke:#FFFFFF;stroke-width:7;stroke-miterlimit:10;" width="29.596" height="242.519"/>
<line style="fill:none;stroke:#FFFFFF;stroke-width:7;stroke-linecap:round;stroke-linejoin:round;stroke-miterlimit:10;" x1="801.557" y1="851.106" x2="880.172" y2="833.531"/>
<circle style="fill:none;stroke:#FFFFFF;stroke-width:7;stroke-linecap:round;stroke-linejoin:round;stroke-miterlimit:10;" cx="889.951" cy="956.923" r="0.246"/>
<line style="fill:none;stroke:#FFFFFF;stroke-width:7;stroke-linecap:round;stroke-linejoin:round;stroke-miterlimit:10;" x1="906.071" y1="956.923" x2="917.126" y2="956.923"/>
<line style="fill:none;stroke:#FFFFFF;stroke-width:7;stroke-linecap:round;stroke-linejoin:round;stroke-miterlimit:10;" x1="790.606" y1="1245.342" x2="824.244" y2="1245.342"/>
<line style="fill:none;stroke:#FFFFFF;stroke-width:7;stroke-linecap:round;stroke-linejoin:round;stroke-miterlimit:10;" x1="909.353" y1="1245.342" x2="876.251" y2="1245.342"/>
<circle style="fill:none;stroke:#FFFFFF;stroke-width:7;stroke-linecap:round;stroke-linejoin:round;stroke-miterlimit:10;" cx="837.53" cy="1245.342" r="0.407"/>
</svg>
