<?xml version="1.0" encoding="iso-8859-1"?>
<!-- Generator: Adobe Illustrator 25.2.0, SVG Export Plug-In . SVG Version: 6.00 Build 0)  -->
<svg version="1.1" id="&#x56FE;&#x5C42;_1" xmlns="http://www.w3.org/2000/svg" xmlns:xlink="http://www.w3.org/1999/xlink" x="0px"
	 y="0px" viewBox="0 0 2048 2048" style="enable-background:new 0 0 2048 2048;" xml:space="preserve">
<g>
	<rect x="0.5" y="0.5" width="2047" height="2047"/>
	<path d="M2047,1v2046H1V1H2047 M2048,0H0v2048h2048V0L2048,0z"/>
</g>
<g>
	<path style="fill:#263952;" d="M1105.031,810.863H897.677c-10.755,0-19.474,8.719-19.474,19.474v82.657v69.019v241.867
		c0,10.756,8.719,19.475,19.474,19.475h25.83h101.112h65.675h69.761c10.755,0,19.474-8.719,19.474-19.475v-203.397v-82.33v-76.413
		L1105.031,810.863z"/>
	
		<path style="fill:none;stroke:#FFFFFF;stroke-width:10.2661;stroke-linecap:round;stroke-linejoin:round;stroke-miterlimit:10;" d="
		M907.094,1226.51h-25.629c-10.672,0-19.323-8.651-19.323-19.323V967.201"/>
	
		<path style="fill:none;stroke:#FFFFFF;stroke-width:10.2661;stroke-linecap:round;stroke-linejoin:round;stroke-miterlimit:10;" d="
		M1161.126,1005.372v201.815c0,10.672-8.651,19.323-19.323,19.323h-69.219h-65.164"/>
	<g>
		<path style="fill:#FFFFFF;" d="M968.358,924.227v-6.656h8.649v6.656c0,2.446-0.562,4.42-1.688,5.925s-2.911,2.667-5.358,3.49
			l-2.11-2.5c1.604-0.541,2.785-1.336,3.545-2.386s1.182-2.56,1.266-4.529H968.358z"/>
	</g>
	<g>
		<path style="fill:#FFFFFF;" d="M1112.997,924.227v-6.656h8.649v6.656c0,2.446-0.562,4.42-1.688,5.925s-2.911,2.667-5.358,3.49
			l-2.11-2.5c1.604-0.541,2.785-1.336,3.545-2.386s1.182-2.56,1.266-4.529H1112.997z"/>
	</g>
	<g>
		<path style="fill:#FFFFFF;" d="M1062.399,997.581v-7.834h10.182v7.834c0,2.879-0.662,5.203-1.986,6.974
			c-1.324,1.771-3.427,3.14-6.308,4.108l-2.483-2.943c1.888-0.637,3.278-1.573,4.172-2.809c0.895-1.236,1.391-3.013,1.49-5.331
			H1062.399z"/>
	</g>
	<g>
		<path style="fill:#FFFFFF;" d="M1113.281,1074.426v-7.031h9.138v7.031c0,2.584-0.595,4.67-1.782,6.26
			c-1.189,1.589-3.076,2.817-5.662,3.687l-2.229-2.641c1.694-0.572,2.942-1.412,3.744-2.521c0.803-1.109,1.248-2.705,1.338-4.785
			H1113.281z"/>
	</g>
	<g>
		<path style="fill:#FFFFFF;" d="M991.897,1156.6v-6.94h9.021v6.94c0,2.551-0.588,4.609-1.761,6.179
			c-1.173,1.568-3.036,2.781-5.588,3.64l-2.2-2.606c1.672-0.564,2.904-1.395,3.696-2.489s1.232-2.669,1.32-4.723H991.897z"/>
	</g>
	<g>
		<path style="fill:#FFFFFF;" d="M1112.782,1156.6v-6.94h9.021v6.94c0,2.551-0.588,4.609-1.761,6.179
			c-1.173,1.568-3.036,2.781-5.588,3.64l-2.2-2.606c1.672-0.564,2.904-1.395,3.696-2.489s1.232-2.669,1.32-4.723H1112.782z"/>
	</g>
	
		<line style="fill:none;stroke:#FFFFFF;stroke-width:10.8345;stroke-linecap:round;stroke-linejoin:round;stroke-miterlimit:10;" x1="896.906" y1="914.385" x2="956.227" y2="914.385"/>
	
		<path style="fill:none;stroke:#FFFFFF;stroke-width:10.2661;stroke-linecap:round;stroke-linejoin:round;stroke-miterlimit:10;" d="
		M1161.126,917.579v-69.833l-82.684-56.467H881.466c-10.672,0-19.323,8.651-19.323,19.323v82.014"/>
	
		<line style="fill:none;stroke:#FFFFFF;stroke-width:10.8345;stroke-linecap:round;stroke-linejoin:round;stroke-miterlimit:10;" x1="1001.939" y1="914.385" x2="1098.677" y2="914.385"/>
	
		<line style="fill:none;stroke:#FFFFFF;stroke-width:10.8345;stroke-linecap:round;stroke-linejoin:round;stroke-miterlimit:10;" x1="897.056" y1="1067.9" x2="1100.105" y2="1067.9"/>
	
		<line style="fill:none;stroke:#FFFFFF;stroke-width:10.8345;stroke-linecap:round;stroke-linejoin:round;stroke-miterlimit:10;" x1="896.906" y1="990.089" x2="1046.723" y2="990.089"/>
	
		<line style="fill:none;stroke:#FFFFFF;stroke-width:10.8345;stroke-linecap:round;stroke-linejoin:round;stroke-miterlimit:10;" x1="899.103" y1="1148.408" x2="981.399" y2="1148.408"/>
	
		<line style="fill:none;stroke:#FFFFFF;stroke-width:10.8345;stroke-linecap:round;stroke-linejoin:round;stroke-miterlimit:10;" x1="1017.482" y1="1148.408" x2="1099.778" y2="1148.408"/>
	<path style="opacity:0.8;" d="M1253.486,1164.717l-55.837-55.837c12.35-13.008,19.952-30.565,19.952-49.875
		c0-39.982-32.528-72.509-72.509-72.509c-39.981,0-72.509,32.527-72.509,72.509c0,5.299,0.574,10.586,1.71,15.714
		c0.645,2.92,3.529,4.772,6.459,4.119c2.92-0.645,4.766-3.537,4.119-6.459c-0.964-4.361-1.453-8.861-1.453-13.375
		c0-34.007,27.667-61.674,61.674-61.674c34.007,0,61.674,27.667,61.674,61.674c0,17.435-7.284,33.191-18.953,44.419
		c-0.037,0.01-0.074,0.022-0.111,0.033c11.692-11.21,18.983-26.975,18.983-44.452c0-34.017-27.576-61.592-61.592-61.592
		c-34.016,0-61.592,27.576-61.592,61.592c0,34.016,27.576,61.592,61.592,61.592c14.619,0,28.041-5.104,38.603-13.612
		c-0.015,0.036-0.033,0.07-0.047,0.106c-10.569,8.491-23.975,13.589-38.556,13.589c-5.375,0-10.708-0.691-15.848-2.054
		c-2.897-0.769-5.86,0.955-6.625,3.847c-0.768,2.893,0.955,5.859,3.847,6.625c6.047,1.604,12.314,2.417,18.626,2.417
		c16.217,0,31.207-5.353,43.299-14.383l56.34,56.34c1.208,1.209,2.793,1.814,4.377,1.814c1.584,0,3.17-0.605,4.377-1.814
		C1255.905,1171.055,1255.905,1167.134,1253.486,1164.717z"/>
	
		<path style="fill:none;stroke:#FFFFFF;stroke-width:10.8345;stroke-linecap:round;stroke-linejoin:round;stroke-miterlimit:10;" d="
		M1085.775,1054.918c-1.035-4.683-1.581-9.549-1.581-14.544c0-37.054,30.038-67.091,67.091-67.091
		c37.053,0,67.091,30.038,67.091,67.091c0,37.053-30.038,67.091-67.091,67.091c-5.959,0-11.737-0.777-17.238-2.235"/>
	
		<line style="fill:none;stroke:#FFFFFF;stroke-width:12.3823;stroke-linecap:round;stroke-linejoin:round;stroke-miterlimit:10;" x1="1195.59" y1="1090.752" x2="1255.3" y2="1150.462"/>
	<circle style="opacity:0.9;fill:#35A9C9;" cx="1151.286" cy="1040.374" r="61.592"/>
	
		<line style="fill:none;stroke:#FFFFFF;stroke-width:10.2661;stroke-linecap:round;stroke-linejoin:round;stroke-miterlimit:10;" x1="862.143" y1="913.917" x2="862.143" y2="931.269"/>
	
		<line style="fill:none;stroke:#FFFFFF;stroke-width:10.8345;stroke-linecap:round;stroke-linejoin:round;stroke-miterlimit:10;" x1="989.923" y1="1226.51" x2="955.137" y2="1226.51"/>
	<g>
		<path style="stroke:#FFFFFF;stroke-width:10.8345;stroke-miterlimit:10;" d="M938.493,1221.235l-21.731,10.704
			c-1.763-1.058-3.237-2.633-4.21-4.614L802.794,1004.4l24.853-12.237l109.757,222.926
			C938.378,1217.069,938.726,1219.202,938.493,1221.235z"/>
		<path style="stroke:#FFFFFF;stroke-width:10.8345;stroke-miterlimit:10;" d="M827.647,992.162l-24.853,12.237l-9.444-19.18
			c-3.371-6.859-0.558-15.166,6.316-18.538c1.665-0.828,3.419-1.274,5.164-1.393c5.451-0.374,10.814,2.501,13.373,7.694
			L827.647,992.162z"/>
		
			<polyline style="fill:#FFFFFF;stroke:#FFFFFF;stroke-width:10.8345;stroke-linecap:round;stroke-linejoin:round;stroke-miterlimit:10;" points="
			917.177,1232.276 942.647,1256.438 939.029,1221.517 		"/>
		<polyline points="917.642,1225.416 934.123,1239.139 932.763,1217.971 		"/>
	</g>
	<g>
		<path style="fill:#FFFFFF;" d="M920.251,852.514l5.054,1.276c-1.06,4.151-2.966,7.316-5.718,9.495
			c-2.753,2.18-6.118,3.27-10.094,3.27c-4.116,0-7.463-0.838-10.042-2.514c-2.579-1.676-4.542-4.103-5.887-7.281
			c-1.346-3.178-2.019-6.591-2.019-10.237c0-3.977,0.759-7.446,2.279-10.407c1.519-2.961,3.681-5.21,6.486-6.747
			c2.805-1.537,5.891-2.306,9.261-2.306c3.82,0,7.033,0.973,9.638,2.917c2.604,1.945,4.419,4.681,5.444,8.206l-4.976,1.172
			c-0.886-2.778-2.171-4.802-3.855-6.069s-3.803-1.902-6.356-1.902c-2.935,0-5.388,0.704-7.359,2.11
			c-1.971,1.407-3.356,3.295-4.155,5.666c-0.799,2.37-1.198,4.815-1.198,7.333c0,3.248,0.473,6.083,1.42,8.505
			c0.946,2.422,2.418,4.233,4.415,5.431s4.159,1.797,6.486,1.797c2.831,0,5.227-0.816,7.19-2.449
			C918.228,858.149,919.556,855.727,920.251,852.514z"/>
		<path style="fill:#FFFFFF;" d="M929.811,853.634l4.767-0.417c0.226,1.911,0.751,3.478,1.576,4.702
			c0.825,1.224,2.105,2.214,3.843,2.969c1.736,0.756,3.689,1.133,5.86,1.133c1.928,0,3.63-0.287,5.106-0.859
			c1.476-0.573,2.574-1.359,3.295-2.357s1.081-2.088,1.081-3.27c0-1.198-0.348-2.244-1.042-3.139
			c-0.695-0.895-1.841-1.646-3.438-2.253c-1.025-0.399-3.291-1.02-6.799-1.862s-5.966-1.637-7.372-2.384
			c-1.823-0.955-3.183-2.14-4.076-3.556c-0.896-1.415-1.342-3-1.342-4.754c0-1.928,0.547-3.729,1.641-5.405
			c1.095-1.676,2.691-2.947,4.793-3.816c2.102-0.868,4.438-1.303,7.008-1.303c2.83,0,5.327,0.456,7.489,1.368
			s3.824,2.253,4.988,4.024c1.163,1.771,1.788,3.777,1.875,6.018l-4.845,0.365c-0.261-2.414-1.143-4.237-2.645-5.47
			s-3.721-1.85-6.655-1.85c-3.057,0-5.284,0.56-6.682,1.68s-2.097,2.471-2.097,4.051c0,1.372,0.495,2.5,1.484,3.386
			c0.973,0.886,3.513,1.793,7.62,2.722c4.106,0.929,6.924,1.741,8.452,2.436c2.223,1.025,3.864,2.323,4.924,3.894
			c1.059,1.572,1.589,3.382,1.589,5.432c0,2.032-0.582,3.946-1.745,5.744c-1.164,1.797-2.836,3.195-5.015,4.194
			c-2.18,0.999-4.633,1.498-7.359,1.498c-3.455,0-6.352-0.504-8.687-1.511c-2.336-1.007-4.168-2.522-5.497-4.545
			C930.579,858.475,929.88,856.187,929.811,853.634z"/>
		<path style="fill:#FFFFFF;" d="M978.028,865.903l-14.796-38.188h5.471l9.925,27.742c0.798,2.223,1.467,4.307,2.006,6.252
			c0.59-2.084,1.276-4.168,2.058-6.252l10.315-27.742h5.157l-14.952,38.188H978.028z"/>
	</g>
</g>
</svg>
