<?xml version="1.0" encoding="iso-8859-1"?>
<!-- Generator: Adobe Illustrator 25.2.0, SVG Export Plug-In . SVG Version: 6.00 Build 0)  -->
<svg version="1.1" id="&#x56FE;&#x5C42;_1" xmlns="http://www.w3.org/2000/svg" xmlns:xlink="http://www.w3.org/1999/xlink" x="0px"
	 y="0px" viewBox="0 0 2048 2048" style="enable-background:new 0 0 2048 2048;" xml:space="preserve">
<g>
	<rect x="0.5" y="0.5" width="2047" height="2047"/>
	<path d="M2047,1v2046H1V1H2047 M2048,0H0v2048h2048V0L2048,0z"/>
</g>
<g>
	<path style="fill:#262626;" d="M1065.083,1263.511H839.332c-27.611,0-49.994-22.383-49.994-49.994v-356.67
		c0-27.611,22.383-49.994,49.994-49.994h225.751c27.611,0,49.994,22.383,49.994,49.994v356.67
		C1115.077,1241.128,1092.694,1263.511,1065.083,1263.511z"/>
	<g>
		<g>
			<path style="fill:#2D2D2D;" d="M1257.824,980.422l5.123-0.448c0.242,2.053,0.807,3.737,1.694,5.053
				c0.886,1.316,2.263,2.379,4.129,3.191c1.866,0.812,3.965,1.218,6.299,1.218c2.072,0,3.9-0.308,5.487-0.924
				c1.586-0.616,2.766-1.46,3.541-2.533c0.774-1.073,1.162-2.244,1.162-3.513c0-1.288-0.373-2.412-1.12-3.373
				c-0.747-0.961-1.978-1.768-3.695-2.421c-1.101-0.429-3.537-1.096-7.306-2.002c-3.77-0.905-6.411-1.759-7.922-2.561
				c-1.96-1.026-3.42-2.3-4.381-3.821c-0.961-1.521-1.442-3.224-1.442-5.109c0-2.072,0.588-4.007,1.764-5.809
				c1.176-1.801,2.893-3.168,5.151-4.101c2.258-0.933,4.768-1.4,7.53-1.4c3.042,0,5.725,0.49,8.048,1.47
				c2.323,0.98,4.11,2.421,5.361,4.325c1.25,1.904,1.922,4.059,2.016,6.467l-5.207,0.392c-0.28-2.594-1.227-4.553-2.841-5.879
				c-1.614-1.325-3.999-1.988-7.152-1.988c-3.285,0-5.678,0.602-7.18,1.806c-1.503,1.204-2.254,2.655-2.254,4.353
				c0,1.474,0.532,2.687,1.596,3.639c1.045,0.952,3.774,1.927,8.188,2.925c4.413,0.999,7.442,1.871,9.084,2.617
				c2.389,1.101,4.152,2.496,5.291,4.185c1.138,1.689,1.708,3.635,1.708,5.837c0,2.183-0.625,4.241-1.876,6.173
				c-1.25,1.932-3.047,3.434-5.389,4.507c-2.342,1.073-4.978,1.61-7.908,1.61c-3.714,0-6.826-0.542-9.336-1.624
				c-2.51-1.082-4.479-2.711-5.907-4.885C1258.65,985.625,1257.899,983.166,1257.824,980.422z"/>
		</g>
		
			<line style="fill:none;stroke:#2D2D2D;stroke-width:2.9422;stroke-miterlimit:10;" x1="1274.159" y1="947.329" x2="1274.159" y2="998.847"/>
	</g>
	<g>
		<g>
			<path style="fill:#2D2D2D;" d="M1243.571,923.178l4.9-0.428c0.232,1.964,0.772,3.575,1.62,4.833
				c0.848,1.258,2.164,2.276,3.95,3.053c1.785,0.776,3.793,1.165,6.025,1.165c1.982,0,3.731-0.294,5.248-0.884
				c1.517-0.589,2.646-1.397,3.387-2.423c0.74-1.026,1.111-2.146,1.111-3.36c0-1.232-0.357-2.307-1.071-3.227
				c-0.714-0.919-1.893-1.691-3.535-2.316c-1.053-0.411-3.383-1.049-6.989-1.915c-3.606-0.866-6.132-1.682-7.578-2.45
				c-1.875-0.982-3.271-2.2-4.191-3.655c-0.92-1.455-1.379-3.083-1.379-4.887c0-1.982,0.562-3.833,1.687-5.556
				c1.125-1.723,2.767-3.03,4.927-3.923c2.16-0.892,4.561-1.339,7.203-1.339c2.909,0,5.476,0.469,7.698,1.406
				c2.223,0.937,3.932,2.316,5.128,4.137c1.196,1.821,1.838,3.883,1.928,6.186l-4.981,0.375c-0.268-2.481-1.174-4.355-2.718-5.623
				c-1.544-1.267-3.825-1.901-6.842-1.901c-3.142,0-5.431,0.576-6.868,1.727c-1.437,1.151-2.156,2.54-2.156,4.164
				c0,1.41,0.509,2.571,1.526,3.481c1,0.91,3.61,1.843,7.832,2.798c4.222,0.955,7.118,1.79,8.689,2.504
				c2.285,1.054,3.972,2.388,5.061,4.003c1.089,1.616,1.633,3.477,1.633,5.583c0,2.089-0.598,4.057-1.794,5.904
				c-1.196,1.848-2.914,3.285-5.155,4.311c-2.24,1.026-4.762,1.54-7.564,1.54c-3.552,0-6.529-0.518-8.93-1.553
				c-2.401-1.035-4.284-2.593-5.65-4.673C1244.361,928.155,1243.642,925.803,1243.571,923.178z"/>
		</g>
		
			<line style="fill:none;stroke:#2D2D2D;stroke-width:2.8143;stroke-miterlimit:10;" x1="1259.196" y1="891.524" x2="1259.196" y2="940.802"/>
	</g>
	<path style="fill:none;stroke:#FFFFFF;stroke-width:7.1694;stroke-linecap:round;stroke-linejoin:round;stroke-miterlimit:10;" d="
		M1086.831,1166.915v23.673c0,29.903-24.241,54.144-54.144,54.144H815.236c-29.903,0-54.144-24.241-54.144-54.144v-204.8"/>
	<path style="fill:none;stroke:#FFFFFF;stroke-width:7.1694;stroke-linecap:round;stroke-linejoin:round;stroke-miterlimit:10;" d="
		M761.092,899.885v-57.667c0-29.903,24.241-54.144,54.144-54.144h217.451c29.903,0,54.144,24.241,54.144,54.144v197.138"/>
	<g>
		<g>
			<path style="fill:#FFFFFF;" d="M1238.025,920.877l5.003-0.437c0.237,2.005,0.788,3.649,1.654,4.934
				c0.865,1.285,2.209,2.323,4.032,3.116c1.822,0.793,3.872,1.189,6.151,1.189c2.023,0,3.809-0.301,5.358-0.902
				c1.549-0.601,2.702-1.426,3.458-2.474c0.756-1.048,1.134-2.191,1.134-3.431c0-1.258-0.365-2.355-1.093-3.294
				c-0.729-0.938-1.932-1.726-3.609-2.365c-1.075-0.419-3.454-1.07-7.135-1.955c-3.681-0.884-6.26-1.717-7.736-2.501
				c-1.914-1.002-3.34-2.246-4.278-3.731c-0.939-1.485-1.408-3.148-1.408-4.989c0-2.023,0.574-3.913,1.722-5.672
				c1.148-1.758,2.825-3.093,5.03-4.005c2.205-0.911,4.656-1.367,7.353-1.367c2.97,0,5.59,0.478,7.859,1.435
				c2.269,0.957,4.014,2.365,5.235,4.223c1.221,1.859,1.877,3.964,1.968,6.315l-5.084,0.383c-0.273-2.533-1.199-4.446-2.775-5.741
				c-1.576-1.294-3.905-1.941-6.984-1.941c-3.208,0-5.545,0.588-7.012,1.763c-1.467,1.175-2.201,2.593-2.201,4.251
				c0,1.44,0.52,2.624,1.558,3.554c1.02,0.929,3.686,1.882,7.996,2.857c4.31,0.975,7.267,1.827,8.87,2.556
				c2.333,1.076,4.055,2.438,5.167,4.087c1.111,1.65,1.667,3.549,1.667,5.699c0,2.132-0.611,4.141-1.832,6.028
				c-1.221,1.886-2.975,3.353-5.262,4.401c-2.287,1.048-4.861,1.572-7.722,1.572c-3.627,0-6.666-0.529-9.116-1.586
				c-2.451-1.057-4.374-2.647-5.768-4.77C1238.832,925.957,1238.098,923.556,1238.025,920.877z"/>
		</g>
		
			<line style="fill:none;stroke:#FFFFFF;stroke-width:3.3837;stroke-linecap:round;stroke-linejoin:round;stroke-miterlimit:10;" x1="1253.976" y1="888.561" x2="1253.976" y2="938.868"/>
	</g>
	<g>
		<g>
			<path style="fill:#FFFFFF;" d="M1253.976,977.237l5.003-0.437c0.237,2.005,0.788,3.649,1.654,4.934
				c0.865,1.285,2.209,2.323,4.032,3.116c1.822,0.793,3.872,1.189,6.151,1.189c2.023,0,3.809-0.301,5.358-0.902
				c1.549-0.601,2.702-1.426,3.458-2.474c0.756-1.048,1.134-2.191,1.134-3.431c0-1.258-0.365-2.355-1.093-3.294
				c-0.729-0.938-1.932-1.727-3.608-2.365c-1.075-0.419-3.454-1.07-7.135-1.955c-3.681-0.884-6.26-1.717-7.736-2.501
				c-1.913-1.002-3.34-2.246-4.278-3.731c-0.939-1.485-1.408-3.148-1.408-4.989c0-2.023,0.574-3.913,1.722-5.672
				c1.148-1.758,2.825-3.093,5.03-4.005c2.205-0.911,4.656-1.367,7.353-1.367c2.97,0,5.59,0.478,7.859,1.435
				c2.269,0.957,4.014,2.365,5.235,4.223c1.221,1.859,1.877,3.964,1.968,6.315l-5.084,0.383c-0.273-2.533-1.199-4.446-2.775-5.741
				c-1.576-1.294-3.905-1.941-6.984-1.941c-3.208,0-5.545,0.588-7.012,1.763c-1.467,1.175-2.2,2.593-2.2,4.251
				c0,1.44,0.519,2.624,1.558,3.554c1.02,0.929,3.686,1.882,7.996,2.857c4.31,0.975,7.267,1.827,8.87,2.556
				c2.333,1.076,4.055,2.438,5.166,4.087c1.111,1.65,1.668,3.549,1.668,5.699c0,2.132-0.611,4.141-1.832,6.028
				c-1.221,1.886-2.975,3.353-5.262,4.401c-2.287,1.048-4.861,1.572-7.722,1.572c-3.627,0-6.666-0.529-9.116-1.586
				c-2.451-1.057-4.374-2.647-5.768-4.77C1254.782,982.317,1254.048,979.916,1253.976,977.237z"/>
		</g>
		
			<line style="fill:none;stroke:#FFFFFF;stroke-width:3.3837;stroke-linecap:round;stroke-linejoin:round;stroke-miterlimit:10;" x1="1269.926" y1="944.922" x2="1269.926" y2="995.228"/>
	</g>
	<g>
		<g>
			<path style="fill:#FFFFFF;" d="M1160.3,978.619l12.188-1.065c0.576,4.885,1.92,8.891,4.03,12.022
				c2.108,3.13,5.383,5.661,9.824,7.593c4.439,1.931,9.435,2.897,14.985,2.897c4.929,0,9.28-0.732,13.054-2.198
				c3.774-1.465,6.582-3.474,8.425-6.028c1.842-2.553,2.764-5.338,2.764-8.358c0-3.064-0.889-5.738-2.664-8.026
				c-1.776-2.286-4.707-4.206-8.792-5.761c-2.62-1.021-8.414-2.608-17.383-4.762c-8.969-2.153-15.252-4.185-18.848-6.094
				c-4.662-2.442-8.137-5.472-10.423-9.091c-2.287-3.618-3.43-7.67-3.43-12.155c0-4.929,1.399-9.534,4.196-13.82
				c2.797-4.284,6.882-7.536,12.255-9.757c5.372-2.22,11.344-3.33,17.916-3.33c7.237,0,13.62,1.166,19.148,3.497
				c5.528,2.331,9.779,5.761,12.755,10.29c2.974,4.529,4.572,9.657,4.795,15.385l-12.388,0.932
				c-0.666-6.171-2.92-10.833-6.76-13.987c-3.841-3.152-9.514-4.729-17.017-4.729c-7.815,0-13.51,1.432-17.083,4.296
				c-3.575,2.864-5.361,6.317-5.361,10.357c0,3.508,1.266,6.394,3.796,8.658c2.486,2.264,8.98,4.585,19.481,6.96
				c10.5,2.376,17.705,4.452,21.612,6.227c5.683,2.621,9.879,5.939,12.588,9.957c2.708,4.019,4.063,8.648,4.063,13.886
				c0,5.195-1.488,10.09-4.462,14.686c-2.975,4.596-7.249,8.17-12.821,10.723c-5.573,2.553-11.844,3.83-18.815,3.83
				c-8.836,0-16.241-1.289-22.212-3.863c-5.972-2.575-10.656-6.449-14.053-11.622C1162.265,990.997,1160.477,985.147,1160.3,978.619
				z"/>
		</g>
		
			<line style="fill:none;stroke:#FFFFFF;stroke-width:8.2441;stroke-linecap:round;stroke-linejoin:round;stroke-miterlimit:10;" x1="1199.163" y1="899.885" x2="1199.163" y2="1022.455"/>
	</g>
	<g>
		<g>
			<path style="fill:#FFFFFF;" d="M811.203,834.491l4.255-0.372c0.201,1.705,0.67,3.104,1.407,4.197
				c0.736,1.093,1.879,1.976,3.43,2.651c1.55,0.674,3.294,1.011,5.232,1.011c1.721,0,3.24-0.256,4.557-0.767
				c1.317-0.511,2.298-1.213,2.941-2.104c0.643-0.891,0.965-1.864,0.965-2.918c0-1.07-0.31-2.003-0.93-2.802
				c-0.62-0.798-1.643-1.469-3.069-2.011c-0.915-0.356-2.938-0.91-6.069-1.663c-3.131-0.752-5.325-1.461-6.58-2.128
				c-1.628-0.852-2.841-1.91-3.639-3.174c-0.799-1.263-1.198-2.678-1.198-4.244c0-1.721,0.488-3.329,1.465-4.825
				c0.977-1.496,2.403-2.631,4.278-3.406c1.875-0.775,3.961-1.163,6.255-1.163c2.526,0,4.755,0.407,6.685,1.221
				c1.93,0.814,3.414,2.011,4.453,3.592c1.038,1.581,1.596,3.372,1.674,5.371l-4.325,0.326c-0.233-2.154-1.02-3.782-2.36-4.883
				c-1.341-1.1-3.321-1.651-5.941-1.651c-2.729,0-4.716,0.5-5.964,1.5c-1.248,1-1.872,2.205-1.872,3.616
				c0,1.225,0.442,2.232,1.325,3.023c0.868,0.791,3.135,1.601,6.801,2.43c3.666,0.829,6.181,1.554,7.545,2.174
				c1.984,0.915,3.449,2.073,4.395,3.476c0.945,1.403,1.418,3.019,1.418,4.848c0,1.814-0.52,3.523-1.558,5.127
				c-1.039,1.604-2.531,2.852-4.476,3.744c-1.946,0.891-4.135,1.337-6.569,1.337c-3.085,0-5.67-0.45-7.754-1.349
				c-2.085-0.899-3.72-2.251-4.906-4.057C811.889,838.812,811.265,836.769,811.203,834.491z"/>
		</g>
		
			<line style="fill:none;stroke:#FFFFFF;stroke-width:2.8782;stroke-linecap:round;stroke-linejoin:round;stroke-miterlimit:10;" x1="824.771" y1="807.003" x2="824.771" y2="849.794"/>
	</g>
	<g>
		<g>
			
				<line style="fill:none;stroke:#FFFFFF;stroke-width:7;stroke-linecap:round;stroke-linejoin:round;" x1="1145.575" y1="961.17" x2="1022.53" y2="961.17"/>
			<g>
				<polygon style="fill:#FFFFFF;" points="1045.724,932.541 1050.499,937.668 1025.216,961.163 1050.499,984.665 1045.724,989.792 
					1014.938,961.163 				"/>
			</g>
		</g>
	</g>
	
		<circle style="fill:none;stroke:#FFFFFF;stroke-width:7;stroke-linecap:round;stroke-linejoin:round;stroke-miterlimit:10;" cx="1086.19" cy="1140.411" r="1.606"/>
	
		<line style="fill:none;stroke:#FFFFFF;stroke-width:7;stroke-linecap:round;stroke-linejoin:round;stroke-miterlimit:10;" x1="1086.831" y1="1058.531" x2="1086.831" y2="1106.728"/>
	
		<line style="fill:none;stroke:#FFFFFF;stroke-width:7;stroke-linecap:round;stroke-linejoin:round;stroke-miterlimit:10;" x1="820.772" y1="874.663" x2="1011.828" y2="874.663"/>
	
		<line style="fill:none;stroke:#FFFFFF;stroke-width:7;stroke-linecap:round;stroke-linejoin:round;stroke-miterlimit:10;" x1="820.772" y1="917.182" x2="1011.828" y2="917.182"/>
	
		<line style="fill:none;stroke:#FFFFFF;stroke-width:7;stroke-linecap:round;stroke-linejoin:round;stroke-miterlimit:10;" x1="820.772" y1="1009.025" x2="1011.828" y2="1009.025"/>
	
		<line style="fill:none;stroke:#FFFFFF;stroke-width:7;stroke-linecap:round;stroke-linejoin:round;stroke-miterlimit:10;" x1="819.403" y1="1047.009" x2="935.713" y2="1047.009"/>
	
		<line style="fill:none;stroke:#FFFFFF;stroke-width:7;stroke-linecap:round;stroke-linejoin:round;stroke-miterlimit:10;" x1="819.403" y1="1091.797" x2="935.713" y2="1091.797"/>
	
		<line style="fill:none;stroke:#FFFFFF;stroke-width:7;stroke-linecap:round;stroke-linejoin:round;stroke-miterlimit:10;" x1="821.336" y1="1136.584" x2="1001.86" y2="1136.584"/>
</g>
</svg>
