<?xml version="1.0" encoding="iso-8859-1"?>
<!-- Generator: Adobe Illustrator 25.2.0, SVG Export Plug-In . SVG Version: 6.00 Build 0)  -->
<svg version="1.1" id="&#x56FE;&#x5C42;_1" x="0px"
	 y="0px" viewBox="0 0 2048 2048" style="enable-background:new 0 0 2048 2048;" >
<g>
	<polygon style="fill:none;stroke-width:47.3662;stroke-miterlimit:10;" points="676.855,832.19 1062.739,163.82 
		1434.147,832.19 1062.739,1574.323 	"/>
	<polygon style="fill:none;stroke-width:36.398;stroke-miterlimit:10;" points="771.773,1004.039 1068.3,490.438 
		1353.705,1004.039 1068.3,1574.323 	"/>
	<polygon style="fill:none;stroke-width:36.398;stroke-miterlimit:10;" points="771.773,1250.164 1068.3,736.563 
		1353.705,1250.164 1068.3,1820.448 	"/>
	<polygon style="fill:none;stroke-width:25.9863;stroke-miterlimit:10;" points="486.637,1121.429 621.26,888.256 
		750.833,1121.429 621.26,1380.336 	"/>
	<polygon style="fill:none;stroke-width:19.44;stroke-miterlimit:10;" points="549.898,1020.225 620.043,898.729 
		687.557,1020.225 620.043,1155.129 	"/>
	<polygon style="fill:none;stroke-width:19.44;stroke-miterlimit:10;" points="659.146,1415.59 729.291,1294.094 
		796.806,1415.59 729.291,1550.494 	"/>
	<polygon style="fill:none;stroke-width:10.0845;stroke-miterlimit:10;" points="692.27,1480.512 728.658,1417.486 
		763.681,1480.512 728.658,1550.494 	"/>
	<polygon style="fill:none;stroke-width:10.0845;stroke-miterlimit:10;" points="1355.748,1485.32 
		1392.136,1422.294 1427.159,1485.32 1392.136,1555.302 	"/>
	<polygon style="fill:none;stroke-width:19.44;stroke-miterlimit:10;" points="1322.624,1415.59 1392.769,1294.094 
		1460.283,1415.59 1392.769,1550.494 	"/>
	<polygon style="fill:none;stroke-width:19.44;stroke-miterlimit:10;" points="1416.973,1020.225 1487.118,898.729 
		1554.632,1020.225 1487.118,1155.129 	"/>
	<polygon style="fill:none;stroke-width:25.9863;stroke-miterlimit:10;" points="1353.705,1121.429 
		1488.327,888.256 1617.9,1121.429 1488.327,1380.336 	"/>
</g>
</svg>
