<?xml version="1.0" encoding="iso-8859-1"?>
<!-- Generator: Adobe Illustrator 25.2.0, SVG Export Plug-In . SVG Version: 6.00 Build 0)  -->
<svg version="1.1" id="&#x56FE;&#x5C42;_1" xmlns="http://www.w3.org/2000/svg" xmlns:xlink="http://www.w3.org/1999/xlink" x="0px"
	 y="0px" viewBox="0 0 2048 2048" style="enable-background:new 0 0 2048 2048;" xml:space="preserve">
<g>
	<g id="Main_x5F_body">
		<polygon id="mid_x5F_top" style="fill:none;stroke-width:47.3662;stroke-miterlimit:10;" points="645.469,868.058 
			1031.353,199.688 1402.761,868.058 1031.353,1610.191 		"/>
		<polygon id="mid_x5F_mid" style="fill:none;stroke-width:36.398;stroke-miterlimit:10;" points="733.122,1039.907 
			1029.65,526.306 1315.055,1039.907 1029.65,1610.191 		"/>
		<polygon id="mid_x5F_bot" style="fill:none;stroke-width:36.398;stroke-miterlimit:10;" points="733.122,1286.032 
			1029.65,772.431 1315.055,1286.032 1029.65,1856.316 		"/>
	</g>
	<g id="Left_x5F_top">
		<polygon style="fill:none;stroke-width:25.9863;stroke-miterlimit:10;" points="463.489,1169.947 598.111,936.774 
			727.684,1169.947 598.111,1428.854 		"/>
		<polygon style="fill:none;stroke-width:19.44;stroke-miterlimit:10;" points="528.033,1058.27 598.179,936.774 
			665.693,1058.27 598.179,1193.174 		"/>
	</g>
	<g id="Left_x5F_top_1_">
		<polygon style="fill:none;stroke-width:25.9863;stroke-miterlimit:10;" points="1320.442,1170.536 
			1455.065,937.363 1584.638,1170.536 1455.065,1429.443 		"/>
		<polygon style="fill:none;stroke-width:19.44;stroke-miterlimit:10;" points="1384.987,1058.858 1455.132,937.363 
			1522.646,1058.858 1455.132,1193.762 		"/>
	</g>
	<g id="Left_x5F_bot">
		<polygon style="fill:none;stroke-width:19.44;stroke-miterlimit:10;" points="643.725,1487.56 713.87,1366.064 
			781.384,1487.56 713.87,1622.464 		"/>
		<polygon style="fill:none;stroke-width:10.0845;stroke-miterlimit:10;" points="676.849,1552.482 
			713.237,1489.456 748.26,1552.482 713.237,1622.464 		"/>
	</g>
	<g id="Left_x5F_bot_1_">
		<polygon style="fill:none;stroke-width:19.44;stroke-miterlimit:10;" points="1266.71,1487.56 1336.856,1366.064 
			1404.37,1487.56 1336.856,1622.464 		"/>
		<polygon style="fill:none;stroke-width:10.0845;stroke-miterlimit:10;" points="1299.834,1552.482 
			1336.222,1489.456 1371.246,1552.482 1336.222,1622.464 		"/>
	</g>
</g>
</svg>
