<?xml version="1.0" encoding="iso-8859-1"?>
<!-- Generator: Adobe Illustrator 25.2.0, SVG Export Plug-In . SVG Version: 6.00 Build 0)  -->
<svg version="1.1" id="&#x56FE;&#x5C42;_1" xmlns="http://www.w3.org/2000/svg" xmlns:xlink="http://www.w3.org/1999/xlink" x="0px"
	 y="0px" viewBox="0 0 2048 2048" style="enable-background:new 0 0 2048 2048;" xml:space="preserve">
<g id="Main_x5F_body">
	<polygon id="mid_x5F_top" style="fill:none;stroke-width:47.3662;stroke-miterlimit:10;" points="679.372,832.19 
		1065.256,163.82 1436.664,832.19 1065.256,1574.323 	"/>
	<polygon id="mid_x5F_mid" style="fill:none;stroke-width:36.398;stroke-miterlimit:10;" points="767.025,1004.039 
		1063.553,490.438 1348.958,1004.039 1063.553,1574.323 	"/>
	<polygon id="mid_x5F_bot" style="fill:none;stroke-width:36.398;stroke-miterlimit:10;" points="767.025,1250.164 
		1063.553,736.563 1348.958,1250.164 1063.553,1820.448 	"/>
</g>
<g id="Left_x5F_top">
	<polygon style="fill:none;stroke-width:25.9863;stroke-miterlimit:10;" points="497.392,1134.079 632.014,900.906 
		761.587,1134.079 632.014,1392.986 	"/>
	<polygon style="fill:none;stroke-width:19.44;stroke-miterlimit:10;" points="561.936,1022.402 632.082,900.906 
		699.596,1022.402 632.082,1157.306 	"/>
</g>
<g id="Right_x5F_top">
	<polygon style="fill:none;stroke-width:25.9863;stroke-miterlimit:10;" points="1354.345,1134.668 
		1488.968,901.495 1618.541,1134.668 1488.968,1393.575 	"/>
	<polygon style="fill:none;stroke-width:19.44;stroke-miterlimit:10;" points="1418.89,1022.99 1489.035,901.495 
		1556.549,1022.99 1489.035,1157.894 	"/>
</g>
<g id="Left_x5F_bot">
	<polygon style="fill:none;stroke-width:19.44;stroke-miterlimit:10;" points="677.628,1451.692 747.773,1330.196 
		815.287,1451.692 747.773,1586.596 	"/>
	<polygon style="fill:none;stroke-width:10.0845;stroke-miterlimit:10;" points="710.752,1516.614 747.14,1453.588 
		782.163,1516.614 747.14,1586.596 	"/>
</g>
<g id="Right_x5F_bot">
	<polygon style="fill:none;stroke-width:19.44;stroke-miterlimit:10;" points="1300.613,1451.692 1370.759,1330.196 
		1438.273,1451.692 1370.759,1586.596 	"/>
	<polygon style="fill:none;stroke-width:10.0845;stroke-miterlimit:10;" points="1333.737,1516.614 
		1370.125,1453.588 1405.149,1516.614 1370.125,1586.596 	"/>
</g>
</svg>
