<?xml version="1.0" encoding="iso-8859-1"?>
<!-- Generator: Adobe Illustrator 25.2.0, SVG Export Plug-In . SVG Version: 6.00 Build 0)  -->
<svg version="1.1" id="&#x56FE;&#x5C42;_1" xmlns="http://www.w3.org/2000/svg" xmlns:xlink="http://www.w3.org/1999/xlink" x="0px"
	 y="0px" viewBox="0 0 2048 2048" style="enable-background:new 0 0 2048 2048;" xml:space="preserve">
<circle  class="contact-circle"  cx="1024" cy="1024" r="961.428"/>
<g class="contact-svg-content">
	<circle cx="1024" cy="1024" r="855.44"/>
	<g class="mail">
		<path  d="M462.719,677.265c-46.148,10.972-80.472,52.462-80.472,101.97v513.183
			c0,12.863,2.322,25.183,6.562,36.569l362.819-362.819L462.719,677.265z"/>
		<path  d="M1611.553,677.265l-288.909,288.903l362.819,362.819c4.24-11.386,6.562-23.706,6.562-36.569
			V779.234C1692.024,729.727,1657.701,688.237,1611.553,677.265z"/>
		<path  d="M1230.856,1057.953c-106.984,106.993-280.456,106.993-387.44,0l-53.754-53.753l-369.174,369.174
			c18.107,14.907,41.3,23.86,66.584,23.86H1587.2c25.284,0,48.477-8.953,66.584-23.86L1284.61,1004.2L1230.856,1057.953z"/>
		<path  d="M1037.136,1082.623c65.996,0,128.04-25.7,174.704-72.367l337.632-337.626H524.799l337.633,337.625
			C909.096,1056.922,971.14,1082.623,1037.136,1082.623z"/>
	</g>
</g>
</svg>
