<?xml version="1.0" encoding="iso-8859-1"?>
<!-- Generator: Adobe Illustrator 25.2.0, SVG Export Plug-In . SVG Version: 6.00 Build 0)  -->
<svg version="1.1" id="&#x56FE;&#x5C42;_1" xmlns="http://www.w3.org/2000/svg" xmlns:xlink="http://www.w3.org/1999/xlink" x="0px"
	 y="0px" viewBox="0 0 2048 2048" style="enable-background:new 0 0 2048 2048;" xml:space="preserve">
<g>
<circle class="contact-circle" cx="1024" cy="1024" r="961.428"/>
<path class="contact-svg-content" d="M1024,166.975c-472.346,0-855.441,383.024-855.441,855.441c0,377.962,245.084,698.61,585.05,811.742
	c42.701,7.913,56.53-18.606,56.53-41.132v-159.255c-237.955,51.754-287.499-100.942-287.499-100.942
	c-38.923-98.875-95.025-125.18-95.025-125.18c-77.631-53.109,5.917-51.968,5.917-51.968c85.901,5.988,131.096,88.182,131.096,88.182
	c76.277,130.74,200.102,92.958,248.933,71.073c7.628-55.247,29.798-93.029,54.32-114.344
	c-189.979-21.743-389.725-95.097-389.725-422.802c0-93.457,33.433-169.734,88.11-229.615c-8.84-21.6-38.138-108.641,8.341-226.407
	c0,0,71.857-22.954,235.318,87.683c68.221-18.962,141.362-28.443,214.074-28.8c72.712,0.356,145.924,9.838,214.288,28.8
	c163.318-110.637,235.032-87.683,235.032-87.683c46.55,117.837,17.251,204.878,8.412,226.407
	c54.891,59.881,88.039,136.229,88.039,229.615c0,328.561-200.102,400.917-390.58,422.089
	c30.653,26.519,58.669,78.558,58.669,158.399v234.747c0,22.741,13.687,49.473,57.101,41.061
	c339.681-113.275,584.48-433.851,584.48-811.671C1879.441,549.998,1496.417,166.975,1024,166.975z"/>
	</g>
</svg>
