<?xml version="1.0" encoding="iso-8859-1"?>
<!-- Generator: Adobe Illustrator 25.2.0, SVG Export Plug-In . SVG Version: 6.00 Build 0)  -->
<svg version="1.1" id="&#x56FE;&#x5C42;_1" xmlns="http://www.w3.org/2000/svg" xmlns:xlink="http://www.w3.org/1999/xlink" x="0px"
	 y="0px" viewBox="0 0 2048 2048" style="enable-background:new 0 0 2048 2048;" xml:space="preserve">
<circle class="contact-circle" cx="1024" cy="1024" r="961.428"/>
<path class="contact-svg-content" d="M1024,168.56c-472.417,0-855.44,383.023-855.44,855.44s383.023,855.44,855.44,855.44s855.44-383.023,855.44-855.44
	S1496.417,168.56,1024,168.56z M881.427,1309.147H738.853v-427.72h142.573V1309.147z M810.14,817.91
	c-43.271,0-78.415-35.358-78.415-79.057c0-43.627,35.073-79.057,78.415-79.057s78.415,35.429,78.415,79.057
	C888.555,782.552,853.411,817.91,810.14,817.91z M1380.433,1309.147h-142.431v-203.951c0-134.09-142.716-122.756-142.716,0v203.951
	H952.713v-427.72h142.573v77.916c62.162-115.199,285.147-123.754,285.147,110.352V1309.147z"/>
</svg>
